<?xml version="1.0" standalone="no"?>
<!DOCTYPE svg PUBLIC "-//W3C//DTD SVG 20010904//EN"
 "http://www.w3.org/TR/2001/REC-SVG-20010904/DTD/svg10.dtd">
<svg version="1.0" xmlns="http://www.w3.org/2000/svg"
 width="500.000000pt" height="500.000000pt" viewBox="0 0 500.000000 500.000000"
 preserveAspectRatio="xMidYMid meet">
<metadata>
Created by potrace 1.11, written by Peter Selinger 2001-2013
</metadata>
<g transform="translate(0.000000,500.000000) scale(0.100000,-0.100000)"
fill="#000000" stroke="none">
<path d="M1231 4443 c-104 -55 -108 -209 -6 -254 65 -29 117 -34 155 -14 l32
17 47 -39 c25 -22 59 -63 74 -93 27 -51 28 -61 23 -140 -3 -47 -16 -122 -30
-169 -15 -47 -26 -101 -26 -121 l0 -35 -92 -24 c-51 -13 -128 -37 -171 -53
-43 -17 -80 -28 -83 -25 -2 2 5 44 16 93 42 177 35 327 -20 434 -29 56 -155
135 -257 160 -33 8 -43 15 -43 31 0 83 -139 151 -234 115 -54 -21 -86 -63 -92
-124 -10 -90 62 -162 163 -162 49 0 75 11 115 47 l26 25 93 -46 c164 -83 177
-100 186 -234 4 -68 0 -108 -17 -182 -12 -52 -26 -117 -32 -145 -6 -27 -12
-55 -13 -61 -2 -6 -50 -41 -107 -79 -354 -234 -578 -639 -579 -1046 -1 -536
520 -976 1561 -1317 290 -96 1097 -294 1270 -313 124 -14 336 -6 463 16 254
45 431 143 531 294 28 43 53 71 64 71 26 0 321 102 515 179 40 16 35 44 -27
148 -66 112 -153 222 -204 259 l-39 28 -6 126 c-8 187 -81 440 -186 650 l-41
81 54 67 c111 138 172 262 217 440 36 140 47 284 30 374 -35 179 -163 312
-352 364 -89 25 -289 30 -389 9 -163 -33 -262 -76 -439 -192 -62 -41 -114 -73
-116 -71 -1 2 -17 29 -35 61 -111 198 -307 366 -530 455 -162 65 -393 98 -508
72 -176 -38 -312 -191 -358 -403 -19 -87 -12 -82 -134 -92 -41 -4 -86 -9 -99
-12 -22 -5 -23 -3 -17 18 26 87 67 266 77 331 11 75 10 79 -15 122 -27 46
-115 131 -153 149 -21 9 -22 15 -17 62 8 63 -11 104 -61 135 -50 31 -139 37
-184 13z m1196 -422 c128 -13 254 -46 353 -93 69 -33 101 -56 171 -127 79 -79
92 -98 162 -237 155 -308 197 -430 197 -576 0 -146 -49 -274 -154 -400 -151
-181 -349 -250 -595 -206 -63 11 -69 15 -142 87 -178 176 -405 615 -479 925
-59 246 -25 400 120 547 89 90 142 101 367 80z m1710 -311 c124 -29 257 -120
297 -203 49 -103 42 -401 -14 -568 -38 -114 -121 -243 -192 -299 l-27 -21 -79
68 c-111 95 -382 293 -488 356 -49 28 -126 70 -171 91 -81 39 -81 39 -88 85
-4 25 -20 86 -37 135 l-30 90 23 17 c13 10 82 47 154 82 278 138 514 199 652
167z m-2898 -465 c14 -50 3 -143 -29 -253 -35 -121 -52 -161 -86 -201 -32 -38
-65 -40 -93 -5 -28 36 -27 87 4 204 45 169 116 290 169 290 20 0 27 -7 35 -35z"/>
</g>
</svg>
